<svg data-v-fde0c5aa="" xmlns="http://www.w3.org/2000/svg" viewBox="0 0 300 300" class="iconAboveSlogan"><!----><defs data-v-fde0c5aa=""><!----></defs><rect data-v-fde0c5aa="" fill="#F1DEDA" x="0" y="0" width="300px" height="300px" class="logo-background-square"></rect><defs data-v-fde0c5aa=""><!----></defs><g data-v-fde0c5aa="" id="9cafaa43-2f85-47d7-bad6-b477e94326e8" fill="#250A05" transform="matrix(4.435346090377996,0,0,4.435346090377996,20.57659497059976,152.73766635664725)"><path d="M2.51 3.42L5.28 11.44L5.33 11.44L7.94 3.42L6.78 3.12L6.78 2.52L10.05 2.52L10.05 3.12L8.90 3.42L5.77 12.60L4.40 12.60L0.99 3.42L-0.13 3.12L-0.13 2.52L3.65 2.52L3.65 3.12L2.51 3.42ZM9.53 10.96L9.53 10.96L9.53 10.96Q9.53 10.42 9.78 10.00L9.78 10.00L9.78 10.00Q10.02 9.58 10.56 9.25L10.56 9.25L10.56 9.25Q11.09 8.92 11.93 8.68L11.93 8.68L11.93 8.68Q12.77 8.44 13.94 8.26L13.94 8.26L13.94 8.26Q13.87 7.43 13.78 6.97L13.78 6.97L13.78 6.97Q13.69 6.51 13.54 6.23L13.54 6.23L13.54 6.23Q13.34 5.87 12.99 5.69L12.99 5.69L12.99 5.69Q12.64 5.52 12.24 5.52L12.24 5.52L12.24 5.52Q11.84 5.52 11.53 5.66L11.53 5.66L11.53 5.66Q11.21 5.80 11.10 6.03L11.10 6.03L11.10 6.03Q11.30 6.19 11.39 6.40L11.39 6.40L11.39 6.40Q11.48 6.62 11.48 6.82L11.48 6.82L11.48 6.82Q11.48 7.17 11.25 7.37L11.25 7.37L11.25 7.37Q11.02 7.57 10.68 7.57L10.68 7.57L10.68 7.57Q10.35 7.57 10.13 7.35L10.13 7.35L10.13 7.35Q9.91 7.13 9.91 6.72L9.91 6.72L9.91 6.72Q9.91 6.29 10.15 5.94L10.15 5.94L10.15 5.94Q10.39 5.60 10.77 5.37L10.77 5.37L10.77 5.37Q11.16 5.14 11.64 5.02L11.64 5.02L11.64 5.02Q12.12 4.90 12.60 4.90L12.60 4.90L12.60 4.90Q13.79 4.90 14.48 5.59L14.48 5.59L14.48 5.59Q15.34 6.45 15.34 8.67L15.34 8.67L15.34 10.70L15.34 10.70Q15.34 11.40 15.44 11.65L15.44 11.65L15.44 11.65Q15.53 11.91 15.83 11.91L15.83 11.91L16.46 11.91L16.46 12.33L16.46 12.33Q15.46 12.74 14.90 12.74L14.90 12.74L14.90 12.74Q14.69 12.74 14.55 12.67L14.55 12.67L14.55 12.67Q14.41 12.60 14.32 12.42L14.32 12.42L14.32 12.42Q14.24 12.25 14.20 11.96L14.20 11.96L14.20 11.96Q14.17 11.66 14.17 11.21L14.17 11.21L14.11 11.21L14.11 11.21Q13.68 11.93 12.96 12.33L12.96 12.33L12.96 12.33Q12.25 12.74 11.42 12.74L11.42 12.74L11.42 12.74Q10.54 12.74 10.04 12.27L10.04 12.27L10.04 12.27Q9.53 11.80 9.53 10.96ZM12.01 11.93L12.01 11.93L12.01 11.93Q12.40 11.93 12.83 11.72L12.83 11.72L12.83 11.72Q13.26 11.52 13.55 11.16L13.55 11.16L13.55 11.16Q13.99 10.63 13.99 9.59L13.99 9.59L13.99 9.59Q13.99 9.35 13.97 9.12L13.97 9.12L13.97 9.12Q13.96 8.89 13.93 8.68L13.93 8.68L13.93 8.68Q13.08 8.85 12.51 9.03L12.51 9.03L12.51 9.03Q11.94 9.21 11.60 9.44L11.60 9.44L11.60 9.44Q11.26 9.67 11.12 9.97L11.12 9.97L11.12 9.97Q10.98 10.28 10.98 10.67L10.98 10.67L10.98 10.67Q10.98 11.27 11.25 11.60L11.25 11.60L11.25 11.60Q11.52 11.93 12.01 11.93ZM21.24 5.85L21.24 5.85L21.24 5.85Q21.11 5.77 20.96 5.77L20.96 5.77L20.96 5.77Q20.69 5.77 20.40 6.10L20.40 6.10L20.40 6.10Q20.10 6.43 19.88 6.93L19.88 6.93L19.88 6.93Q19.68 7.41 19.57 7.97L19.57 7.97L19.57 7.97Q19.46 8.54 19.46 9.14L19.46 9.14L19.46 11.76L20.97 12.03L20.97 12.60L17.02 12.60L17.02 12.03L18.10 11.76L18.10 5.88L17.02 5.61L17.02 5.04L19.04 5.04L19.35 6.89L19.40 6.89L19.40 6.89Q19.73 5.94 20.27 5.42L20.27 5.42L20.27 5.42Q20.80 4.90 21.48 4.90L21.48 4.90L21.48 4.90Q22.02 4.90 22.39 5.24L22.39 5.24L22.39 5.24Q22.75 5.59 22.75 6.16L22.75 6.16L22.75 6.16Q22.75 6.58 22.53 6.82L22.53 6.82L22.53 6.82Q22.32 7.07 21.95 7.07L21.95 7.07L21.95 7.07Q21.59 7.07 21.38 6.84L21.38 6.84L21.38 6.84Q21.17 6.61 21.17 6.23L21.17 6.23L21.17 6.23Q21.17 6.15 21.18 6.08L21.18 6.08L21.18 6.08Q21.20 6.01 21.24 5.85ZM24.51 5.88L23.44 5.61L23.44 5.04L25.87 5.04L25.87 11.76L26.95 12.03L26.95 12.60L23.44 12.60L23.44 12.03L24.51 11.76L24.51 5.88ZM24.32 2.79L24.32 2.79L24.32 2.79Q24.32 2.38 24.55 2.14L24.55 2.14L24.55 2.14Q24.78 1.90 25.19 1.90L25.19 1.90L25.19 1.90Q25.59 1.90 25.83 2.14L25.83 2.14L25.83 2.14Q26.07 2.38 26.07 2.79L26.07 2.79L26.07 2.79Q26.07 3.19 25.83 3.42L25.83 3.42L25.83 3.42Q25.59 3.65 25.19 3.65L25.19 3.65L25.19 3.65Q24.78 3.65 24.55 3.42L24.55 3.42L24.55 3.42Q24.32 3.19 24.32 2.79ZM27.83 10.96L27.83 10.96L27.83 10.96Q27.83 10.42 28.08 10.00L28.08 10.00L28.08 10.00Q28.32 9.58 28.85 9.25L28.85 9.25L28.85 9.25Q29.39 8.92 30.23 8.68L30.23 8.68L30.23 8.68Q31.07 8.44 32.24 8.26L32.24 8.26L32.24 8.26Q32.17 7.43 32.08 6.97L32.08 6.97L32.08 6.97Q31.99 6.51 31.84 6.23L31.84 6.23L31.84 6.23Q31.64 5.87 31.29 5.69L31.29 5.69L31.29 5.69Q30.94 5.52 30.53 5.52L30.53 5.52L30.53 5.52Q30.14 5.52 29.83 5.66L29.83 5.66L29.83 5.66Q29.51 5.80 29.40 6.03L29.40 6.03L29.40 6.03Q29.60 6.19 29.69 6.40L29.69 6.40L29.69 6.40Q29.78 6.62 29.78 6.82L29.78 6.82L29.78 6.82Q29.78 7.17 29.55 7.37L29.55 7.37L29.55 7.37Q29.32 7.57 28.98 7.57L28.98 7.57L28.98 7.57Q28.64 7.57 28.43 7.35L28.43 7.35L28.43 7.35Q28.21 7.13 28.21 6.72L28.21 6.72L28.21 6.72Q28.21 6.29 28.45 5.94L28.45 5.94L28.45 5.94Q28.69 5.60 29.07 5.37L29.07 5.37L29.07 5.37Q29.46 5.14 29.94 5.02L29.94 5.02L29.94 5.02Q30.42 4.90 30.90 4.90L30.90 4.90L30.90 4.90Q32.09 4.90 32.77 5.59L32.77 5.59L32.77 5.59Q33.64 6.45 33.64 8.67L33.64 8.67L33.64 10.70L33.64 10.70Q33.64 11.40 33.73 11.65L33.73 11.65L33.73 11.65Q33.82 11.91 34.13 11.91L34.13 11.91L34.76 11.91L34.76 12.33L34.76 12.33Q33.75 12.74 33.19 12.74L33.19 12.74L33.19 12.74Q32.98 12.74 32.84 12.67L32.84 12.67L32.84 12.67Q32.70 12.60 32.62 12.42L32.62 12.42L32.62 12.42Q32.54 12.25 32.50 11.96L32.50 11.96L32.50 11.96Q32.47 11.66 32.47 11.21L32.47 11.21L32.41 11.21L32.41 11.21Q31.98 11.93 31.26 12.33L31.26 12.33L31.26 12.33Q30.55 12.74 29.72 12.74L29.72 12.74L29.72 12.74Q28.84 12.74 28.34 12.27L28.34 12.27L28.34 12.27Q27.83 11.80 27.83 10.96ZM30.31 11.93L30.31 11.93L30.31 11.93Q30.70 11.93 31.13 11.72L31.13 11.72L31.13 11.72Q31.56 11.52 31.85 11.16L31.85 11.16L31.85 11.16Q32.28 10.63 32.28 9.59L32.28 9.59L32.28 9.59Q32.28 9.35 32.27 9.12L32.27 9.12L32.27 9.12Q32.26 8.89 32.23 8.68L32.23 8.68L32.23 8.68Q31.37 8.85 30.81 9.03L30.81 9.03L30.81 9.03Q30.24 9.21 29.90 9.44L29.90 9.44L29.90 9.44Q29.55 9.67 29.41 9.97L29.41 9.97L29.41 9.97Q29.27 10.28 29.27 10.67L29.27 10.67L29.27 10.67Q29.27 11.27 29.55 11.60L29.55 11.60L29.55 11.60Q29.82 11.93 30.31 11.93ZM36.40 11.76L36.40 5.88L35.32 5.61L35.32 5.04L37.34 5.04L37.65 6.44L37.70 6.44L37.70 6.44Q38.12 5.73 38.83 5.31L38.83 5.31L38.83 5.31Q39.54 4.90 40.36 4.90L40.36 4.90L40.36 4.90Q40.92 4.90 41.37 5.10L41.37 5.10L41.37 5.10Q41.82 5.29 42.08 5.66L42.08 5.66L42.08 5.66Q42.36 6.05 42.48 6.75L42.48 6.75L42.48 6.75Q42.60 7.46 42.60 8.67L42.60 8.67L42.60 11.76L43.68 12.03L43.68 12.60L40.31 12.60L40.31 12.03L41.24 11.76L41.24 8.64L41.24 8.64Q41.24 7.74 41.20 7.29L41.20 7.29L41.20 7.29Q41.15 6.83 41.02 6.58L41.02 6.58L41.02 6.58Q40.67 5.89 39.79 5.89L39.79 5.89L39.79 5.89Q39.40 5.89 39.03 6.03L39.03 6.03L39.03 6.03Q38.67 6.17 38.39 6.41L38.39 6.41L38.39 6.41Q38.08 6.69 37.93 7.06L37.93 7.06L37.93 7.06Q37.79 7.43 37.76 8.02L37.76 8.02L37.76 11.76L38.70 12.03L38.70 12.60L35.32 12.60L35.32 12.03L36.40 11.76ZM48.22 4.90L48.22 4.90L48.22 4.90Q49.43 4.90 50.16 5.49L50.16 5.49L50.16 5.49Q50.88 6.09 50.88 7.08L50.88 7.08L50.88 7.08Q50.88 8.16 50.01 8.16L50.01 8.16L50.01 8.16Q49.60 8.16 49.38 7.94L49.38 7.94L49.38 7.94Q49.15 7.71 49.15 7.34L49.15 7.34L49.15 7.34Q49.15 6.99 49.34 6.73L49.34 6.73L49.34 6.73Q49.53 6.48 49.85 6.38L49.85 6.38L49.85 6.38Q49.45 5.61 48.30 5.61L48.30 5.61L48.30 5.61Q47.15 5.61 46.63 6.36L46.63 6.36L46.63 6.36Q46.10 7.10 46.10 8.69L46.10 8.69L46.10 8.69Q46.10 10.02 46.47 10.72L46.47 10.72L46.47 10.72Q47.03 11.80 48.30 11.80L48.30 11.80L48.30 11.80Q48.94 11.80 49.53 11.52L49.53 11.52L49.53 11.52Q50.12 11.24 50.54 10.72L50.54 10.72L50.96 11.06L50.96 11.06Q50.40 11.93 49.67 12.33L49.67 12.33L49.67 12.33Q48.94 12.74 47.96 12.74L47.96 12.74L47.96 12.74Q46.98 12.74 46.26 12.34L46.26 12.34L46.26 12.34Q45.54 11.94 45.14 11.17L45.14 11.17L45.14 11.17Q44.90 10.72 44.77 10.14L44.77 10.14L44.77 10.14Q44.63 9.56 44.63 8.90L44.63 8.90L44.63 8.90Q44.63 7.99 44.88 7.26L44.88 7.26L44.88 7.26Q45.14 6.52 45.60 6.00L45.60 6.00L45.60 6.00Q46.07 5.47 46.74 5.19L46.74 5.19L46.74 5.19Q47.40 4.90 48.22 4.90ZM58.45 8.90L53.56 8.90L53.56 8.90Q53.56 9.93 53.84 10.60L53.84 10.60L53.84 10.60Q54.12 11.26 54.63 11.53L54.63 11.53L54.63 11.53Q55.15 11.80 55.76 11.80L55.76 11.80L55.76 11.80Q56.43 11.80 56.97 11.53L56.97 11.53L56.97 11.53Q57.51 11.26 57.95 10.78L57.95 10.78L58.39 11.12L58.39 11.12Q58.14 11.45 57.85 11.75L57.85 11.75L57.85 11.75Q57.57 12.04 57.20 12.26L57.20 12.26L57.20 12.26Q56.84 12.49 56.39 12.61L56.39 12.61L56.39 12.61Q55.94 12.74 55.40 12.74L55.40 12.74L55.40 12.74Q54.43 12.74 53.69 12.33L53.69 12.33L53.69 12.33Q52.95 11.91 52.56 11.12L52.56 11.12L52.56 11.12Q52.35 10.68 52.25 10.16L52.25 10.16L52.25 10.16Q52.15 9.63 52.15 9.02L52.15 9.02L52.15 9.02Q52.15 7.04 53.05 5.97L53.05 5.97L53.05 5.97Q53.94 4.90 55.51 4.90L55.51 4.90L55.51 4.90Q56.95 4.90 57.72 5.79L57.72 5.79L57.72 5.79Q58.49 6.68 58.49 8.25L58.49 8.25L58.49 8.25Q58.49 8.39 58.48 8.50L58.48 8.50L58.48 8.50Q58.48 8.62 58.45 8.90L58.45 8.90ZM55.43 5.66L55.43 5.66L55.43 5.66Q53.75 5.66 53.58 8.22L53.58 8.22L57.08 8.22L57.08 7.76L57.08 7.76Q57.08 6.75 56.65 6.20L56.65 6.20L56.65 6.20Q56.22 5.66 55.43 5.66Z"></path></g><defs data-v-fde0c5aa=""><linearGradient data-v-fde0c5aa="" gradientTransform="rotate(25)" id="f4138df1-075e-4520-81fd-65fef6dfb7cd" x1="0%" y1="0%" x2="100%" y2="0%"><stop data-v-fde0c5aa="" offset="0%" stop-color="#30223A" stop-opacity="1"></stop><stop data-v-fde0c5aa="" offset="100%" stop-color="#F13800" stop-opacity="1"></stop></linearGradient></defs><g data-v-fde0c5aa="" id="59ce6e2c-38e9-462e-86fb-6aa7561b331c" stroke="none" fill="url(#f4138df1-075e-4520-81fd-65fef6dfb7cd)" transform="matrix(0.7783951311389538,0,0,0.7783951311389538,111.08024344305231,69.21728689315242)"><path d="M5 5v90h90V5H5zm85.9 85.9H9.1V9.1h81.8v81.8z"></path><path d="M43.1 45.2l14.6 14.6 21.4-21.4v9.5h4.1V31.5H66.7v4h9.5L57.7 54 43.1 39.4 16.8 65.6l2.9 2.9z"></path></g><defs data-v-fde0c5aa=""><!----></defs><g data-v-fde0c5aa="" id="66a85a83-ead4-4a02-92e8-2432a35ef177" fill="#250A05" transform="matrix(0.7601153562987201,0,0,0.7601153562987201,52.233959607172885,217.1612605643231)"><path d="M0.35 10.04L0.35 10.04L0.84 9.98L1.03 10.85L1.03 10.85Q1.13 11.33 1.20 11.41L1.20 11.41L1.20 11.41Q1.27 11.49 1.68 11.64L1.68 11.64L1.68 11.64Q2.52 11.95 3.42 11.95L3.42 11.95L3.42 11.95Q4.20 11.95 4.74 11.49L4.74 11.49L4.74 11.49Q5.28 11.04 5.28 10.26L5.28 10.26L5.28 10.26Q5.28 9.65 4.82 9.21L4.82 9.21L4.82 9.21Q4.34 8.76 3.49 8.30L3.49 8.30L2.91 7.98L2.91 7.98Q2.17 7.55 1.93 7.36L1.93 7.36L1.93 7.36Q1.57 7.08 1.26 6.59L1.26 6.59L1.26 6.59Q0.95 6.10 0.95 5.46L0.95 5.46L0.95 5.46Q0.95 4.39 1.79 3.68L1.79 3.68L1.79 3.68Q2.63 2.97 3.74 2.97L3.74 2.97L3.74 2.97Q4.02 2.97 4.37 3.04L4.37 3.04L4.37 3.04Q4.57 3.08 4.90 3.17L4.90 3.17L5.14 3.25L5.14 3.25Q5.24 3.25 5.28 3.16L5.28 3.16L5.28 3.16Q5.33 3.05 5.33 2.98L5.33 2.98L5.35 2.88L5.82 2.85L6.04 5.41L5.53 5.43L5.41 4.18L5.41 4.18Q4.66 3.62 3.50 3.62L3.50 3.62L3.50 3.62Q2.86 3.62 2.35 4.05L2.35 4.05L2.35 4.05Q1.87 4.47 1.87 5.12L1.87 5.12L1.87 5.12Q1.87 5.72 2.32 6.17L2.32 6.17L2.32 6.17Q2.75 6.60 3.62 7.08L3.62 7.08L4.40 7.50L4.40 7.50Q5.35 8.03 5.88 8.59L5.88 8.59L5.88 8.59Q6.41 9.15 6.41 9.92L6.41 9.92L6.41 9.92Q6.41 10.99 5.56 11.76L5.56 11.76L5.56 11.76Q4.69 12.54 3.23 12.54L3.23 12.54L3.23 12.54Q2.67 12.54 2.17 12.41L2.17 12.41L2.17 12.41Q1.67 12.29 1.61 12.29L1.61 12.29L1.61 12.29Q1.36 12.29 1.36 12.58L1.36 12.58L1.37 12.76L0.90 12.80L0.90 12.80Q0.83 12.41 0.35 10.04ZM14.88 5.35L14.38 5.33L14.38 5.33Q14.50 4.17 14.58 3.08L14.58 3.08L22.66 3.08L22.66 3.08Q22.58 4.13 22.55 4.53L22.55 4.53L22.55 4.53Q22.51 5.26 22.49 5.32L22.49 5.32L21.99 5.30L21.99 5.30Q22.07 4.34 22.07 4.16L22.07 4.16L22.07 4.16Q22.07 3.88 21.93 3.79L21.93 3.79L21.93 3.79Q21.76 3.69 21.36 3.69L21.36 3.69L19.75 3.69L19.75 3.69Q19.24 3.69 19.12 3.79L19.12 3.79L19.12 3.79Q19.02 3.87 19.02 4.36L19.02 4.36L19.02 11.22L19.02 11.22Q19.02 11.66 19.16 11.76L19.16 11.76L19.16 11.76Q19.32 11.87 19.83 11.87L19.83 11.87L20.39 11.87L20.41 12.41L16.71 12.40L16.71 11.87L16.93 11.87L16.93 11.87Q17.60 11.87 17.75 11.79L17.75 11.79L17.75 11.79Q17.89 11.70 17.89 11.28L17.89 11.28L17.89 4.48L17.89 4.48Q17.89 3.92 17.79 3.80L17.79 3.80L17.79 3.80Q17.69 3.69 17.27 3.69L17.27 3.69L15.80 3.69L15.80 3.69Q15.61 3.69 15.54 3.71L15.54 3.71L15.54 3.71Q15.48 3.72 15.37 3.72L15.37 3.72L15.37 3.72Q15.34 3.72 15.22 3.79L15.22 3.79L15.22 3.79Q15.14 3.84 15.11 3.86L15.11 3.86L15.11 3.86Q15.09 3.88 15.05 3.99L15.05 3.99L15.05 3.99Q15.02 4.05 14.99 4.14L14.99 4.14L14.99 4.14Q14.96 4.21 14.94 4.36L14.94 4.36L14.94 4.36Q14.92 4.59 14.92 4.61L14.92 4.61L14.92 4.61Q14.92 4.80 14.90 4.95L14.90 4.95L14.90 4.95Q14.90 5.02 14.90 5.15L14.90 5.15L14.90 5.15Q14.89 5.29 14.88 5.35L14.88 5.35ZM30.41 12.41L30.40 11.87L30.57 11.87L30.57 11.87Q30.96 11.87 31.09 11.73L31.09 11.73L31.09 11.73Q31.21 11.57 31.55 10.83L31.55 10.83L32.46 8.82L33.03 7.53L33.03 7.53Q33.30 6.97 33.34 6.86L33.34 6.86L33.34 6.86Q33.41 6.70 33.46 6.60L33.46 6.60L33.46 6.60Q33.51 6.51 33.52 6.45L33.52 6.45L33.62 6.21L35.05 2.74L35.34 2.74L35.34 2.74Q36.20 4.98 38.38 10.25L38.38 10.25L38.38 10.25Q38.83 11.34 39.03 11.64L39.03 11.64L39.03 11.64Q39.16 11.87 39.60 11.87L39.60 11.87L39.81 11.87L39.80 12.41L36.61 12.41L36.62 11.87L37.04 11.87L37.04 11.87Q37.65 11.87 37.65 11.70L37.65 11.70L37.65 11.70Q37.65 11.63 37.52 11.27L37.52 11.27L36.48 8.72L33.23 8.72L32.12 11.18L32.12 11.18Q31.99 11.50 31.99 11.63L31.99 11.63L31.99 11.63Q31.99 11.79 32.08 11.83L32.08 11.83L32.08 11.83Q32.18 11.87 32.56 11.87L32.56 11.87L33.13 11.87L33.13 12.41L30.41 12.41ZM34.91 4.79L33.50 8.10L36.24 8.10L34.91 4.79ZM47.82 5.35L47.33 5.33L47.33 5.33Q47.45 4.17 47.53 3.08L47.53 3.08L55.61 3.08L55.61 3.08Q55.53 4.13 55.50 4.53L55.50 4.53L55.50 4.53Q55.46 5.26 55.44 5.32L55.44 5.32L54.94 5.30L54.94 5.30Q55.02 4.34 55.02 4.16L55.02 4.16L55.02 4.16Q55.02 3.88 54.88 3.79L54.88 3.79L54.88 3.79Q54.71 3.69 54.30 3.69L54.30 3.69L52.70 3.69L52.70 3.69Q52.19 3.69 52.07 3.79L52.07 3.79L52.07 3.79Q51.97 3.87 51.97 4.36L51.97 4.36L51.97 11.22L51.97 11.22Q51.97 11.66 52.11 11.76L52.11 11.76L52.11 11.76Q52.27 11.87 52.78 11.87L52.78 11.87L53.34 11.87L53.35 12.41L49.66 12.40L49.66 11.87L49.88 11.87L49.88 11.87Q50.55 11.87 50.70 11.79L50.70 11.79L50.70 11.79Q50.84 11.70 50.84 11.28L50.84 11.28L50.84 4.48L50.84 4.48Q50.84 3.92 50.74 3.80L50.74 3.80L50.74 3.80Q50.64 3.69 50.22 3.69L50.22 3.69L48.75 3.69L48.75 3.69Q48.56 3.69 48.49 3.71L48.49 3.71L48.49 3.71Q48.43 3.72 48.32 3.72L48.32 3.72L48.32 3.72Q48.29 3.72 48.17 3.79L48.17 3.79L48.17 3.79Q48.09 3.84 48.06 3.86L48.06 3.86L48.06 3.86Q48.04 3.88 48.00 3.99L48.00 3.99L48.00 3.99Q47.97 4.05 47.94 4.14L47.94 4.14L47.94 4.14Q47.91 4.21 47.89 4.36L47.89 4.36L47.89 4.36Q47.87 4.59 47.87 4.61L47.87 4.61L47.87 4.61Q47.87 4.80 47.85 4.95L47.85 4.95L47.85 4.95Q47.85 5.02 47.84 5.15L47.84 5.15L47.84 5.15Q47.84 5.29 47.82 5.35L47.82 5.35ZM63.94 3.64L63.35 3.64L63.36 3.08L66.88 3.08L66.88 3.64L66.64 3.64L66.64 3.64Q66.10 3.64 65.93 3.73L65.93 3.73L65.93 3.73Q65.79 3.81 65.79 4.28L65.79 4.28L65.79 11.22L65.79 11.22Q65.79 11.68 65.90 11.77L65.90 11.77L65.90 11.77Q66.01 11.87 66.54 11.87L66.54 11.87L67.09 11.87L67.10 12.41L63.52 12.41L63.51 11.87L63.87 11.87L63.87 11.87Q64.43 11.87 64.54 11.77L64.54 11.77L64.54 11.77Q64.65 11.67 64.65 11.25L64.65 11.25L64.65 4.14L64.65 4.14Q64.65 3.77 64.55 3.71L64.55 3.71L64.55 3.71Q64.44 3.64 63.94 3.64L63.94 3.64ZM74.81 10.04L74.81 10.04L75.30 9.98L75.49 10.85L75.49 10.85Q75.60 11.33 75.67 11.41L75.67 11.41L75.67 11.41Q75.74 11.49 76.15 11.64L76.15 11.64L76.15 11.64Q76.99 11.95 77.88 11.95L77.88 11.95L77.88 11.95Q78.67 11.95 79.21 11.49L79.21 11.49L79.21 11.49Q79.74 11.04 79.74 10.26L79.74 10.26L79.74 10.26Q79.74 9.65 79.28 9.21L79.28 9.21L79.28 9.21Q78.80 8.76 77.95 8.30L77.95 8.30L77.38 7.98L77.38 7.98Q76.63 7.55 76.40 7.36L76.40 7.36L76.40 7.36Q76.04 7.08 75.73 6.59L75.73 6.59L75.73 6.59Q75.41 6.10 75.41 5.46L75.41 5.46L75.41 5.46Q75.41 4.39 76.25 3.68L76.25 3.68L76.25 3.68Q77.10 2.97 78.20 2.97L78.20 2.97L78.20 2.97Q78.48 2.97 78.83 3.04L78.83 3.04L78.83 3.04Q79.03 3.08 79.37 3.17L79.37 3.17L79.60 3.25L79.60 3.25Q79.70 3.25 79.74 3.16L79.74 3.16L79.74 3.16Q79.80 3.05 79.80 2.98L79.80 2.98L79.81 2.88L80.29 2.85L80.50 5.41L79.99 5.43L79.87 4.18L79.87 4.18Q79.13 3.62 77.96 3.62L77.96 3.62L77.96 3.62Q77.32 3.62 76.82 4.05L76.82 4.05L76.82 4.05Q76.34 4.47 76.34 5.12L76.34 5.12L76.34 5.12Q76.34 5.72 76.79 6.17L76.79 6.17L76.79 6.17Q77.22 6.60 78.09 7.08L78.09 7.08L78.86 7.50L78.86 7.50Q79.81 8.03 80.34 8.59L80.34 8.59L80.34 8.59Q80.88 9.15 80.88 9.92L80.88 9.92L80.88 9.92Q80.88 10.99 80.02 11.76L80.02 11.76L80.02 11.76Q79.15 12.54 77.70 12.54L77.70 12.54L77.70 12.54Q77.14 12.54 76.63 12.41L76.63 12.41L76.63 12.41Q76.13 12.29 76.08 12.29L76.08 12.29L76.08 12.29Q75.82 12.29 75.82 12.58L75.82 12.58L75.84 12.76L75.36 12.80L75.36 12.80Q75.30 12.41 74.81 10.04ZM89.34 5.35L88.84 5.33L88.84 5.33Q88.96 4.17 89.04 3.08L89.04 3.08L97.13 3.08L97.13 3.08Q97.04 4.13 97.02 4.53L97.02 4.53L97.02 4.53Q96.97 5.26 96.95 5.32L96.95 5.32L96.46 5.30L96.46 5.30Q96.54 4.34 96.54 4.16L96.54 4.16L96.54 4.16Q96.54 3.88 96.39 3.79L96.39 3.79L96.39 3.79Q96.22 3.69 95.82 3.69L95.82 3.69L94.21 3.69L94.21 3.69Q93.71 3.69 93.58 3.79L93.58 3.79L93.58 3.79Q93.49 3.87 93.48 4.36L93.48 4.36L93.48 11.22L93.48 11.22Q93.48 11.66 93.63 11.76L93.63 11.76L93.63 11.76Q93.78 11.87 94.29 11.87L94.29 11.87L94.86 11.87L94.87 12.41L91.18 12.40L91.18 11.87L91.40 11.87L91.40 11.87Q92.07 11.87 92.21 11.79L92.21 11.79L92.21 11.79Q92.35 11.70 92.35 11.28L92.35 11.28L92.35 4.48L92.35 4.48Q92.35 3.92 92.25 3.80L92.25 3.80L92.25 3.80Q92.16 3.69 91.73 3.69L91.73 3.69L90.26 3.69L90.26 3.69Q90.08 3.69 90.01 3.71L90.01 3.71L90.01 3.71Q89.94 3.72 89.83 3.72L89.83 3.72L89.83 3.72Q89.80 3.72 89.69 3.79L89.69 3.79L89.69 3.79Q89.61 3.84 89.58 3.86L89.58 3.86L89.58 3.86Q89.55 3.88 89.51 3.99L89.51 3.99L89.51 3.99Q89.48 4.05 89.46 4.14L89.46 4.14L89.46 4.14Q89.43 4.21 89.41 4.36L89.41 4.36L89.41 4.36Q89.38 4.59 89.38 4.61L89.38 4.61L89.38 4.61Q89.38 4.80 89.37 4.95L89.37 4.95L89.37 4.95Q89.37 5.02 89.36 5.15L89.36 5.15L89.36 5.15Q89.35 5.29 89.34 5.35L89.34 5.35ZM105.45 3.64L104.86 3.64L104.88 3.08L108.39 3.08L108.39 3.64L108.16 3.64L108.16 3.64Q107.61 3.64 107.44 3.73L107.44 3.73L107.44 3.73Q107.30 3.81 107.30 4.28L107.30 4.28L107.30 11.22L107.30 11.22Q107.30 11.68 107.41 11.77L107.41 11.77L107.41 11.77Q107.52 11.87 108.06 11.87L108.06 11.87L108.60 11.87L108.62 12.41L105.03 12.41L105.02 11.87L105.38 11.87L105.38 11.87Q105.94 11.87 106.06 11.77L106.06 11.77L106.06 11.77Q106.17 11.67 106.17 11.25L106.17 11.25L106.17 4.14L106.17 4.14Q106.17 3.77 106.07 3.71L106.07 3.71L106.07 3.71Q105.96 3.64 105.45 3.64L105.45 3.64ZM116.74 8.02L116.74 8.02L116.74 8.02Q116.74 6.86 117.21 5.83L117.21 5.83L117.21 5.83Q117.67 4.85 118.43 4.27L118.43 4.27L118.43 4.27Q119.17 3.69 120.07 3.37L120.07 3.37L120.07 3.37Q120.96 3.05 121.80 3.05L121.80 3.05L121.80 3.05Q122.67 3.05 123.34 3.16L123.34 3.16L123.34 3.16Q123.97 3.26 124.26 3.37L124.26 3.37L124.26 3.37Q124.57 3.48 124.61 3.48L124.61 3.48L124.61 3.48Q124.78 3.48 124.80 3.41L124.80 3.41L124.80 3.41Q124.82 3.33 124.82 3.09L124.82 3.09L124.82 2.97L125.36 2.97L125.36 2.97Q125.40 4.30 125.53 5.64L125.53 5.64L125.02 5.65L125.02 5.65Q125.00 5.40 124.98 5.26L124.98 5.26L124.98 5.26Q124.98 5.20 124.97 5.13L124.97 5.13L124.97 5.13Q124.97 5.07 124.96 5.02L124.96 5.02L124.96 5.02Q124.95 4.98 124.95 4.95L124.95 4.95L124.95 4.95Q124.93 4.84 124.93 4.74L124.93 4.74L124.93 4.74Q124.93 4.68 124.89 4.59L124.89 4.59L124.89 4.59Q124.89 4.57 124.85 4.55L124.85 4.55L124.85 4.55Q124.82 4.52 124.82 4.50L124.82 4.50L124.82 4.50Q124.80 4.44 124.73 4.41L124.73 4.41L124.73 4.41Q124.69 4.38 124.66 4.37L124.66 4.37L124.66 4.37Q124.63 4.36 124.61 4.35L124.61 4.35L124.61 4.35Q124.59 4.35 124.57 4.33L124.57 4.33L124.57 4.33Q124.54 4.31 124.50 4.29L124.50 4.29L124.50 4.29Q124.46 4.27 124.42 4.25L124.42 4.25L124.42 4.25Q124.20 4.16 124.17 4.14L124.17 4.14L124.17 4.14Q123.82 3.96 123.18 3.83L123.18 3.83L123.18 3.83Q122.51 3.71 121.84 3.71L121.84 3.71L121.84 3.71Q120.12 3.71 119.03 4.84L119.03 4.84L119.03 4.84Q117.92 5.99 117.93 7.62L117.93 7.62L117.93 7.62Q117.93 9.35 119.14 10.69L119.14 10.69L119.14 10.69Q120.35 12.02 122.17 12.02L122.17 12.02L122.17 12.02Q123.17 12.02 124.11 11.49L124.11 11.49L124.11 11.49Q125.06 10.94 125.09 10.58L125.09 10.58L125.13 9.41L125.62 9.41L125.54 11.45L125.54 11.45Q125.47 11.49 125.34 11.57L125.34 11.57L125.34 11.57Q125.29 11.60 124.82 11.85L124.82 11.85L124.82 11.85Q124.45 12.05 124.00 12.23L124.00 12.23L124.00 12.23Q123.64 12.39 122.99 12.51L122.99 12.51L122.99 12.51Q122.38 12.63 121.82 12.64L121.82 12.64L121.82 12.64Q119.44 12.64 118.08 11.39L118.08 11.39L118.08 11.39Q116.74 10.14 116.74 8.02ZM133.63 10.04L133.63 10.04L134.12 9.98L134.31 10.85L134.31 10.85Q134.42 11.33 134.48 11.41L134.48 11.41L134.48 11.41Q134.55 11.49 134.96 11.64L134.96 11.64L134.96 11.64Q135.80 11.95 136.70 11.95L136.70 11.95L136.70 11.95Q137.48 11.95 138.02 11.49L138.02 11.49L138.02 11.49Q138.56 11.04 138.56 10.26L138.56 10.26L138.56 10.26Q138.56 9.65 138.10 9.21L138.10 9.21L138.10 9.21Q137.62 8.76 136.77 8.30L136.77 8.30L136.19 7.98L136.19 7.98Q135.45 7.55 135.21 7.36L135.21 7.36L135.21 7.36Q134.85 7.08 134.54 6.59L134.54 6.59L134.54 6.59Q134.23 6.10 134.23 5.46L134.23 5.46L134.23 5.46Q134.23 4.39 135.07 3.68L135.07 3.68L135.07 3.68Q135.91 2.97 137.02 2.97L137.02 2.97L137.02 2.97Q137.30 2.97 137.65 3.04L137.65 3.04L137.65 3.04Q137.85 3.08 138.18 3.17L138.18 3.17L138.42 3.25L138.42 3.25Q138.52 3.25 138.56 3.16L138.56 3.16L138.56 3.16Q138.61 3.05 138.61 2.98L138.61 2.98L138.63 2.88L139.10 2.85L139.32 5.41L138.81 5.43L138.69 4.18L138.69 4.18Q137.94 3.62 136.78 3.62L136.78 3.62L136.78 3.62Q136.14 3.62 135.63 4.05L135.63 4.05L135.63 4.05Q135.15 4.47 135.15 5.12L135.15 5.12L135.15 5.12Q135.15 5.72 135.60 6.17L135.60 6.17L135.60 6.17Q136.04 6.60 136.90 7.08L136.90 7.08L137.68 7.50L137.68 7.50Q138.63 8.03 139.16 8.59L139.16 8.59L139.16 8.59Q139.69 9.15 139.69 9.92L139.69 9.92L139.69 9.92Q139.69 10.99 138.84 11.76L138.84 11.76L138.84 11.76Q137.97 12.54 136.51 12.54L136.51 12.54L136.51 12.54Q135.95 12.54 135.45 12.41L135.45 12.41L135.45 12.41Q134.95 12.29 134.89 12.29L134.89 12.29L134.89 12.29Q134.64 12.29 134.64 12.58L134.64 12.58L134.65 12.76L134.18 12.80L134.18 12.80Q134.11 12.41 133.63 10.04ZM157.46 3.64L157.45 3.08L164.63 3.08L164.63 3.08Q164.64 4.14 164.70 5.28L164.70 5.28L164.15 5.30L164.15 5.30Q164.14 4.66 164.08 4.25L164.08 4.25L164.08 4.25Q164.04 3.89 163.99 3.80L163.99 3.80L163.99 3.80Q163.93 3.71 163.82 3.69L163.82 3.69L163.82 3.69Q163.72 3.68 163.13 3.68L163.13 3.68L160.75 3.68L160.75 3.68Q160.21 3.68 160.06 3.77L160.06 3.77L160.06 3.77Q159.94 3.86 159.94 4.33L159.94 4.33L159.94 6.28L159.94 6.28Q159.94 6.69 160.00 6.76L160.00 6.76L160.00 6.76Q160.06 6.84 160.40 6.84L160.40 6.84L162.52 6.84L162.52 6.84Q162.88 6.84 162.96 6.74L162.96 6.74L162.96 6.74Q163.04 6.64 163.04 6.17L163.04 6.17L163.04 5.63L163.56 5.63L163.56 8.97L163.04 8.97L163.04 8.26L163.04 8.26Q163.04 7.68 162.96 7.57L162.96 7.57L162.96 7.57Q162.88 7.46 162.54 7.46L162.54 7.46L160.45 7.46L160.45 7.46Q160.11 7.46 160.03 7.54L160.03 7.54L160.03 7.54Q159.94 7.63 159.94 7.89L159.94 7.89L159.94 11.20L159.94 11.20Q159.94 11.60 160.01 11.73L160.01 11.73L160.01 11.73Q160.09 11.87 160.36 11.87L160.36 11.87L161.29 11.87L161.29 12.41L157.70 12.41L157.70 11.87L158.11 11.87L158.11 11.87Q158.61 11.87 158.71 11.79L158.71 11.79L158.71 11.79Q158.81 11.70 158.81 11.33L158.81 11.33L158.81 4.24L158.81 4.24Q158.81 3.79 158.63 3.71L158.63 3.71L158.63 3.71Q158.50 3.64 157.46 3.64L157.46 3.64ZM173.13 7.83L173.13 7.83L173.13 7.83Q173.13 6.62 173.53 5.68L173.53 5.68L173.53 5.68Q173.95 4.72 174.64 4.12L174.64 4.12L174.64 4.12Q175.33 3.51 176.19 3.19L176.19 3.19L176.19 3.19Q177.03 2.88 177.98 2.88L177.98 2.88L177.98 2.88Q179.24 2.88 180.29 3.40L180.29 3.40L180.29 3.40Q181.37 3.93 182.08 5.07L182.08 5.07L182.08 5.07Q182.78 6.17 182.79 7.75L182.79 7.75L182.79 7.75Q182.79 8.70 182.48 9.54L182.48 9.54L182.48 9.54Q182.17 10.38 181.57 11.10L181.57 11.10L181.57 11.10Q180.96 11.81 180.02 12.22L180.02 12.22L180.02 12.22Q179.06 12.63 177.87 12.64L177.87 12.64L177.87 12.64Q176.74 12.64 175.80 12.23L175.80 12.23L175.80 12.23Q174.86 11.83 174.30 11.14L174.30 11.14L174.30 11.14Q173.73 10.45 173.43 9.60L173.43 9.60L173.43 9.60Q173.13 8.72 173.13 7.83ZM174.38 7.38L174.38 7.38L174.38 7.38Q174.38 8.52 174.82 9.60L174.82 9.60L174.82 9.60Q175.22 10.64 176.15 11.33L176.15 11.33L176.15 11.33Q177.06 12.03 178.25 12.04L178.25 12.04L178.25 12.04Q179.62 12.04 180.56 11.01L180.56 11.01L180.56 11.01Q181.51 9.97 181.51 8.10L181.51 8.10L181.51 8.10Q181.51 5.99 180.35 4.72L180.35 4.72L180.35 4.72Q179.20 3.46 177.69 3.45L177.69 3.45L177.69 3.45Q177.17 3.45 176.62 3.65L176.62 3.65L176.62 3.65Q176.08 3.85 175.57 4.25L175.57 4.25L175.57 4.25Q175.03 4.68 174.71 5.48L174.71 5.48L174.71 5.48Q174.38 6.27 174.38 7.38ZM191.24 3.64L190.85 3.64L190.86 3.08L194.08 3.08L194.08 3.08Q195.21 3.08 195.82 3.21L195.82 3.21L195.82 3.21Q196.46 3.37 196.92 3.75L196.92 3.75L196.92 3.75Q197.93 4.57 197.93 5.71L197.93 5.71L197.93 5.71Q197.93 6.43 197.46 7.04L197.46 7.04L197.46 7.04Q196.96 7.66 195.93 7.92L195.93 7.92L198.62 11.49L198.62 11.49Q198.93 11.87 199.22 11.87L199.22 11.87L199.82 11.87L199.85 12.41L197.82 12.41L194.82 8.10L194.65 8.10L194.65 8.10Q194.61 8.10 194.56 8.11L194.56 8.11L194.56 8.11Q194.50 8.11 194.49 8.11L194.49 8.11L194.49 8.11Q193.61 8.11 193.21 8.03L193.21 8.03L193.21 11.46L193.21 11.46Q193.21 11.76 193.35 11.81L193.35 11.81L193.35 11.81Q193.48 11.87 194.18 11.87L194.18 11.87L194.89 11.87L194.87 12.41L191.14 12.41L191.14 11.87L191.46 11.87L191.46 11.87Q191.93 11.87 191.99 11.81L191.99 11.81L191.99 11.81Q192.08 11.74 192.08 11.46L192.08 11.46L192.08 4.14L192.08 4.14Q192.08 3.82 191.88 3.73L191.88 3.73L191.88 3.73Q191.66 3.64 191.24 3.64L191.24 3.64ZM193.21 4.28L193.21 7.57L193.21 7.57Q193.40 7.70 194.11 7.71L194.11 7.71L194.11 7.71Q195.38 7.71 195.96 7.27L195.96 7.27L195.96 7.27Q196.55 6.84 196.55 5.92L196.55 5.92L196.55 5.92Q196.55 4.92 195.77 4.27L195.77 4.27L195.77 4.27Q195.02 3.64 193.63 3.64L193.63 3.64L193.63 3.64Q193.38 3.64 193.30 3.75L193.30 3.75L193.30 3.75Q193.22 3.84 193.21 4.28L193.21 4.28ZM217.18 12.41L217.17 11.87L217.34 11.87L217.34 11.87Q217.73 11.87 217.86 11.73L217.86 11.73L217.86 11.73Q217.98 11.57 218.32 10.83L218.32 10.83L219.23 8.82L219.80 7.53L219.80 7.53Q220.07 6.97 220.11 6.86L220.11 6.86L220.11 6.86Q220.18 6.70 220.23 6.60L220.23 6.60L220.23 6.60Q220.28 6.51 220.29 6.45L220.29 6.45L220.39 6.21L221.82 2.74L222.11 2.74L222.11 2.74Q222.97 4.98 225.16 10.25L225.16 10.25L225.16 10.25Q225.61 11.34 225.80 11.64L225.80 11.64L225.80 11.64Q225.93 11.87 226.37 11.87L226.37 11.87L226.58 11.87L226.57 12.41L223.38 12.41L223.39 11.87L223.81 11.87L223.81 11.87Q224.42 11.87 224.42 11.70L224.42 11.70L224.42 11.70Q224.42 11.63 224.29 11.27L224.29 11.27L223.25 8.72L220.00 8.72L218.89 11.18L218.89 11.18Q218.76 11.50 218.76 11.63L218.76 11.63L218.76 11.63Q218.76 11.79 218.85 11.83L218.85 11.83L218.85 11.83Q218.95 11.87 219.33 11.87L219.33 11.87L219.91 11.87L219.91 12.41L217.18 12.41ZM221.68 4.79L220.27 8.10L223.01 8.10L221.68 4.79ZM234.81 3.64L234.32 3.64L234.33 3.08L237.92 3.08L237.92 3.64L237.28 3.64L237.28 3.64Q236.91 3.64 236.79 3.72L236.79 3.72L236.79 3.72Q236.68 3.80 236.68 4.16L236.68 4.16L236.68 11.22L236.68 11.22Q236.68 11.57 236.77 11.67L236.77 11.67L236.77 11.67Q236.85 11.77 237.15 11.77L237.15 11.77L237.15 11.77Q240.02 11.74 240.67 11.63L240.67 11.63L240.67 11.63Q240.88 11.61 240.97 11.39L240.97 11.39L240.97 11.39Q241.05 11.17 241.25 10.05L241.25 10.05L241.74 10.08L241.27 12.41L234.51 12.41L234.50 11.87L234.89 11.87L234.89 11.87Q235.40 11.87 235.46 11.80L235.46 11.80L235.46 11.80Q235.55 11.72 235.55 11.33L235.55 11.33L235.55 4.09L235.55 4.09Q235.55 3.80 235.40 3.72L235.40 3.72L235.40 3.72Q235.25 3.64 234.81 3.64L234.81 3.64ZM249.96 3.64L249.47 3.64L249.48 3.08L253.07 3.08L253.07 3.64L252.44 3.64L252.44 3.64Q252.06 3.64 251.95 3.72L251.95 3.72L251.95 3.72Q251.84 3.80 251.84 4.16L251.84 4.16L251.84 11.22L251.84 11.22Q251.84 11.57 251.92 11.67L251.92 11.67L251.92 11.67Q252.01 11.77 252.30 11.77L252.30 11.77L252.30 11.77Q255.17 11.74 255.83 11.63L255.83 11.63L255.83 11.63Q256.04 11.61 256.12 11.39L256.12 11.39L256.12 11.39Q256.20 11.17 256.40 10.05L256.40 10.05L256.89 10.08L256.43 12.41L249.67 12.41L249.66 11.87L250.04 11.87L250.04 11.87Q250.55 11.87 250.62 11.80L250.62 11.80L250.62 11.80Q250.70 11.72 250.71 11.33L250.71 11.33L250.71 4.09L250.71 4.09Q250.71 3.80 250.55 3.72L250.55 3.72L250.55 3.72Q250.40 3.64 249.96 3.64L249.96 3.64Z"></path></g></svg>