<svg data-v-fde0c5aa="" xmlns="http://www.w3.org/2000/svg" viewBox="0 0 300 300" class="font"><!----><defs data-v-fde0c5aa=""><!----></defs><rect data-v-fde0c5aa="" fill="#F1DEDA" x="0" y="0" width="300px" height="300px" class="logo-background-square"></rect><defs data-v-fde0c5aa=""><linearGradient data-v-fde0c5aa="" gradientTransform="rotate(25)" id="51111165-18c2-48b2-890a-eeee3392f5fe" x1="0%" y1="0%" x2="100%" y2="0%"><stop data-v-fde0c5aa="" offset="0%" stop-color="#30223A" stop-opacity="1"></stop><stop data-v-fde0c5aa="" offset="100%" stop-color="#F13800" stop-opacity="1"></stop></linearGradient></defs><g data-v-fde0c5aa="" id="10e495ec-5348-4cf9-aa3c-57c775c66439" fill="url(#51111165-18c2-48b2-890a-eeee3392f5fe)" transform="matrix(3.7529851533967657,0,0,3.7529851533967657,40.48788805204595,122.52814803289309)"><path d="M2.51 3.42L5.28 11.44L5.33 11.44L7.94 3.42L6.78 3.12L6.78 2.52L10.05 2.52L10.05 3.12L8.90 3.42L5.77 12.60L4.40 12.60L0.99 3.42L-0.13 3.12L-0.13 2.52L3.65 2.52L3.65 3.12L2.51 3.42ZM9.53 10.96L9.53 10.96L9.53 10.96Q9.53 10.42 9.78 10.00L9.78 10.00L9.78 10.00Q10.02 9.58 10.56 9.25L10.56 9.25L10.56 9.25Q11.09 8.92 11.93 8.68L11.93 8.68L11.93 8.68Q12.77 8.44 13.94 8.26L13.94 8.26L13.94 8.26Q13.87 7.43 13.78 6.97L13.78 6.97L13.78 6.97Q13.69 6.51 13.54 6.23L13.54 6.23L13.54 6.23Q13.34 5.87 12.99 5.69L12.99 5.69L12.99 5.69Q12.64 5.52 12.24 5.52L12.24 5.52L12.24 5.52Q11.84 5.52 11.53 5.66L11.53 5.66L11.53 5.66Q11.21 5.80 11.10 6.03L11.10 6.03L11.10 6.03Q11.30 6.19 11.39 6.40L11.39 6.40L11.39 6.40Q11.48 6.62 11.48 6.82L11.48 6.82L11.48 6.82Q11.48 7.17 11.25 7.37L11.25 7.37L11.25 7.37Q11.02 7.57 10.68 7.57L10.68 7.57L10.68 7.57Q10.35 7.57 10.13 7.35L10.13 7.35L10.13 7.35Q9.91 7.13 9.91 6.72L9.91 6.72L9.91 6.72Q9.91 6.29 10.15 5.94L10.15 5.94L10.15 5.94Q10.39 5.60 10.77 5.37L10.77 5.37L10.77 5.37Q11.16 5.14 11.64 5.02L11.64 5.02L11.64 5.02Q12.12 4.90 12.60 4.90L12.60 4.90L12.60 4.90Q13.79 4.90 14.48 5.59L14.48 5.59L14.48 5.59Q15.34 6.45 15.34 8.67L15.34 8.67L15.34 10.70L15.34 10.70Q15.34 11.40 15.44 11.65L15.44 11.65L15.44 11.65Q15.53 11.91 15.83 11.91L15.83 11.91L16.46 11.91L16.46 12.33L16.46 12.33Q15.46 12.74 14.90 12.74L14.90 12.74L14.90 12.74Q14.69 12.74 14.55 12.67L14.55 12.67L14.55 12.67Q14.41 12.60 14.32 12.42L14.32 12.42L14.32 12.42Q14.24 12.25 14.20 11.96L14.20 11.96L14.20 11.96Q14.17 11.66 14.17 11.21L14.17 11.21L14.11 11.21L14.11 11.21Q13.68 11.93 12.96 12.33L12.96 12.33L12.96 12.33Q12.25 12.74 11.42 12.74L11.42 12.74L11.42 12.74Q10.54 12.74 10.04 12.27L10.04 12.27L10.04 12.27Q9.53 11.80 9.53 10.96ZM12.01 11.93L12.01 11.93L12.01 11.93Q12.40 11.93 12.83 11.72L12.83 11.72L12.83 11.72Q13.26 11.52 13.55 11.16L13.55 11.16L13.55 11.16Q13.99 10.63 13.99 9.59L13.99 9.59L13.99 9.59Q13.99 9.35 13.97 9.12L13.97 9.12L13.97 9.12Q13.96 8.89 13.93 8.68L13.93 8.68L13.93 8.68Q13.08 8.85 12.51 9.03L12.51 9.03L12.51 9.03Q11.94 9.21 11.60 9.44L11.60 9.44L11.60 9.44Q11.26 9.67 11.12 9.97L11.12 9.97L11.12 9.97Q10.98 10.28 10.98 10.67L10.98 10.67L10.98 10.67Q10.98 11.27 11.25 11.60L11.25 11.60L11.25 11.60Q11.52 11.93 12.01 11.93ZM21.24 5.85L21.24 5.85L21.24 5.85Q21.11 5.77 20.96 5.77L20.96 5.77L20.96 5.77Q20.69 5.77 20.40 6.10L20.40 6.10L20.40 6.10Q20.10 6.43 19.88 6.93L19.88 6.93L19.88 6.93Q19.68 7.41 19.57 7.97L19.57 7.97L19.57 7.97Q19.46 8.54 19.46 9.14L19.46 9.14L19.46 11.76L20.97 12.03L20.97 12.60L17.02 12.60L17.02 12.03L18.10 11.76L18.10 5.88L17.02 5.61L17.02 5.04L19.04 5.04L19.35 6.89L19.40 6.89L19.40 6.89Q19.73 5.94 20.27 5.42L20.27 5.42L20.27 5.42Q20.80 4.90 21.48 4.90L21.48 4.90L21.48 4.90Q22.02 4.90 22.39 5.24L22.39 5.24L22.39 5.24Q22.75 5.59 22.75 6.16L22.75 6.16L22.75 6.16Q22.75 6.58 22.53 6.82L22.53 6.82L22.53 6.82Q22.32 7.07 21.95 7.07L21.95 7.07L21.95 7.07Q21.59 7.07 21.38 6.84L21.38 6.84L21.38 6.84Q21.17 6.61 21.17 6.23L21.17 6.23L21.17 6.23Q21.17 6.15 21.18 6.08L21.18 6.08L21.18 6.08Q21.20 6.01 21.24 5.85ZM24.51 5.88L23.44 5.61L23.44 5.04L25.87 5.04L25.87 11.76L26.95 12.03L26.95 12.60L23.44 12.60L23.44 12.03L24.51 11.76L24.51 5.88ZM24.32 2.79L24.32 2.79L24.32 2.79Q24.32 2.38 24.55 2.14L24.55 2.14L24.55 2.14Q24.78 1.90 25.19 1.90L25.19 1.90L25.19 1.90Q25.59 1.90 25.83 2.14L25.83 2.14L25.83 2.14Q26.07 2.38 26.07 2.79L26.07 2.79L26.07 2.79Q26.07 3.19 25.83 3.42L25.83 3.42L25.83 3.42Q25.59 3.65 25.19 3.65L25.19 3.65L25.19 3.65Q24.78 3.65 24.55 3.42L24.55 3.42L24.55 3.42Q24.32 3.19 24.32 2.79ZM27.83 10.96L27.83 10.96L27.83 10.96Q27.83 10.42 28.08 10.00L28.08 10.00L28.08 10.00Q28.32 9.58 28.85 9.25L28.85 9.25L28.85 9.25Q29.39 8.92 30.23 8.68L30.23 8.68L30.23 8.68Q31.07 8.44 32.24 8.26L32.24 8.26L32.24 8.26Q32.17 7.43 32.08 6.97L32.08 6.97L32.08 6.97Q31.99 6.51 31.84 6.23L31.84 6.23L31.84 6.23Q31.64 5.87 31.29 5.69L31.29 5.69L31.29 5.69Q30.94 5.52 30.53 5.52L30.53 5.52L30.53 5.52Q30.14 5.52 29.83 5.66L29.83 5.66L29.83 5.66Q29.51 5.80 29.40 6.03L29.40 6.03L29.40 6.03Q29.60 6.19 29.69 6.40L29.69 6.40L29.69 6.40Q29.78 6.62 29.78 6.82L29.78 6.82L29.78 6.82Q29.78 7.17 29.55 7.37L29.55 7.37L29.55 7.37Q29.32 7.57 28.98 7.57L28.98 7.57L28.98 7.57Q28.64 7.57 28.43 7.35L28.43 7.35L28.43 7.35Q28.21 7.13 28.21 6.72L28.21 6.72L28.21 6.72Q28.21 6.29 28.45 5.94L28.45 5.94L28.45 5.94Q28.69 5.60 29.07 5.37L29.07 5.37L29.07 5.37Q29.46 5.14 29.94 5.02L29.94 5.02L29.94 5.02Q30.42 4.90 30.90 4.90L30.90 4.90L30.90 4.90Q32.09 4.90 32.77 5.59L32.77 5.59L32.77 5.59Q33.64 6.45 33.64 8.67L33.64 8.67L33.64 10.70L33.64 10.70Q33.64 11.40 33.73 11.65L33.73 11.65L33.73 11.65Q33.82 11.91 34.13 11.91L34.13 11.91L34.76 11.91L34.76 12.33L34.76 12.33Q33.75 12.74 33.19 12.74L33.19 12.74L33.19 12.74Q32.98 12.74 32.84 12.67L32.84 12.67L32.84 12.67Q32.70 12.60 32.62 12.42L32.62 12.42L32.62 12.42Q32.54 12.25 32.50 11.96L32.50 11.96L32.50 11.96Q32.47 11.66 32.47 11.21L32.47 11.21L32.41 11.21L32.41 11.21Q31.98 11.93 31.26 12.33L31.26 12.33L31.26 12.33Q30.55 12.74 29.72 12.74L29.72 12.74L29.72 12.74Q28.84 12.74 28.34 12.27L28.34 12.27L28.34 12.27Q27.83 11.80 27.83 10.96ZM30.31 11.93L30.31 11.93L30.31 11.93Q30.70 11.93 31.13 11.72L31.13 11.72L31.13 11.72Q31.56 11.52 31.85 11.16L31.85 11.16L31.85 11.16Q32.28 10.63 32.28 9.59L32.28 9.59L32.28 9.59Q32.28 9.35 32.27 9.12L32.27 9.12L32.27 9.12Q32.26 8.89 32.23 8.68L32.23 8.68L32.23 8.68Q31.37 8.85 30.81 9.03L30.81 9.03L30.81 9.03Q30.24 9.21 29.90 9.44L29.90 9.44L29.90 9.44Q29.55 9.67 29.41 9.97L29.41 9.97L29.41 9.97Q29.27 10.28 29.27 10.67L29.27 10.67L29.27 10.67Q29.27 11.27 29.55 11.60L29.55 11.60L29.55 11.60Q29.82 11.93 30.31 11.93ZM36.40 11.76L36.40 5.88L35.32 5.61L35.32 5.04L37.34 5.04L37.65 6.44L37.70 6.44L37.70 6.44Q38.12 5.73 38.83 5.31L38.83 5.31L38.83 5.31Q39.54 4.90 40.36 4.90L40.36 4.90L40.36 4.90Q40.92 4.90 41.37 5.10L41.37 5.10L41.37 5.10Q41.82 5.29 42.08 5.66L42.08 5.66L42.08 5.66Q42.36 6.05 42.48 6.75L42.48 6.75L42.48 6.75Q42.60 7.46 42.60 8.67L42.60 8.67L42.60 11.76L43.68 12.03L43.68 12.60L40.31 12.60L40.31 12.03L41.24 11.76L41.24 8.64L41.24 8.64Q41.24 7.74 41.20 7.29L41.20 7.29L41.20 7.29Q41.15 6.83 41.02 6.58L41.02 6.58L41.02 6.58Q40.67 5.89 39.79 5.89L39.79 5.89L39.79 5.89Q39.40 5.89 39.03 6.03L39.03 6.03L39.03 6.03Q38.67 6.17 38.39 6.41L38.39 6.41L38.39 6.41Q38.08 6.69 37.93 7.06L37.93 7.06L37.93 7.06Q37.79 7.43 37.76 8.02L37.76 8.02L37.76 11.76L38.70 12.03L38.70 12.60L35.32 12.60L35.32 12.03L36.40 11.76ZM48.22 4.90L48.22 4.90L48.22 4.90Q49.43 4.90 50.16 5.49L50.16 5.49L50.16 5.49Q50.88 6.09 50.88 7.08L50.88 7.08L50.88 7.08Q50.88 8.16 50.01 8.16L50.01 8.16L50.01 8.16Q49.60 8.16 49.38 7.94L49.38 7.94L49.38 7.94Q49.15 7.71 49.15 7.34L49.15 7.34L49.15 7.34Q49.15 6.99 49.34 6.73L49.34 6.73L49.34 6.73Q49.53 6.48 49.85 6.38L49.85 6.38L49.85 6.38Q49.45 5.61 48.30 5.61L48.30 5.61L48.30 5.61Q47.15 5.61 46.63 6.36L46.63 6.36L46.63 6.36Q46.10 7.10 46.10 8.69L46.10 8.69L46.10 8.69Q46.10 10.02 46.47 10.72L46.47 10.72L46.47 10.72Q47.03 11.80 48.30 11.80L48.30 11.80L48.30 11.80Q48.94 11.80 49.53 11.52L49.53 11.52L49.53 11.52Q50.12 11.24 50.54 10.72L50.54 10.72L50.96 11.06L50.96 11.06Q50.40 11.93 49.67 12.33L49.67 12.33L49.67 12.33Q48.94 12.74 47.96 12.74L47.96 12.74L47.96 12.74Q46.98 12.74 46.26 12.34L46.26 12.34L46.26 12.34Q45.54 11.94 45.14 11.17L45.14 11.17L45.14 11.17Q44.90 10.72 44.77 10.14L44.77 10.14L44.77 10.14Q44.63 9.56 44.63 8.90L44.63 8.90L44.63 8.90Q44.63 7.99 44.88 7.26L44.88 7.26L44.88 7.26Q45.14 6.52 45.60 6.00L45.60 6.00L45.60 6.00Q46.07 5.47 46.74 5.19L46.74 5.19L46.74 5.19Q47.40 4.90 48.22 4.90ZM58.45 8.90L53.56 8.90L53.56 8.90Q53.56 9.93 53.84 10.60L53.84 10.60L53.84 10.60Q54.12 11.26 54.63 11.53L54.63 11.53L54.63 11.53Q55.15 11.80 55.76 11.80L55.76 11.80L55.76 11.80Q56.43 11.80 56.97 11.53L56.97 11.53L56.97 11.53Q57.51 11.26 57.95 10.78L57.95 10.78L58.39 11.12L58.39 11.12Q58.14 11.45 57.85 11.75L57.85 11.75L57.85 11.75Q57.57 12.04 57.20 12.26L57.20 12.26L57.20 12.26Q56.84 12.49 56.39 12.61L56.39 12.61L56.39 12.61Q55.94 12.74 55.40 12.74L55.40 12.74L55.40 12.74Q54.43 12.74 53.69 12.33L53.69 12.33L53.69 12.33Q52.95 11.91 52.56 11.12L52.56 11.12L52.56 11.12Q52.35 10.68 52.25 10.16L52.25 10.16L52.25 10.16Q52.15 9.63 52.15 9.02L52.15 9.02L52.15 9.02Q52.15 7.04 53.05 5.97L53.05 5.97L53.05 5.97Q53.94 4.90 55.51 4.90L55.51 4.90L55.51 4.90Q56.95 4.90 57.72 5.79L57.72 5.79L57.72 5.79Q58.49 6.68 58.49 8.25L58.49 8.25L58.49 8.25Q58.49 8.39 58.48 8.50L58.48 8.50L58.48 8.50Q58.48 8.62 58.45 8.90L58.45 8.90ZM55.43 5.66L55.43 5.66L55.43 5.66Q53.75 5.66 53.58 8.22L53.58 8.22L57.08 8.22L57.08 7.76L57.08 7.76Q57.08 6.75 56.65 6.20L56.65 6.20L56.65 6.20Q56.22 5.66 55.43 5.66Z"></path></g><!----><!----></svg>